<svg xmlns="http://www.w3.org/2000/svg" xmlns:xlink="http://www.w3.org/1999/xlink" width="1000" zoomAndPan="magnify" viewBox="0 0 750 142.499996" height="190" preserveAspectRatio="xMidYMid meet" version="1.0"><path fill="currentColor" d="M 249.980469 7.953125 C 247.667969 8.511719 246.164062 10.0625 246.164062 11.894531 C 246.164062 12.496094 245.421875 15.542969 244.285156 19.589844 C 243.890625 21.007812 243.585938 22.453125 241.851562 31.203125 C 238.988281 45.667969 237.101562 63.511719 237.578125 71.683594 C 238.132812 81.25 241.78125 87.414062 247.972656 89.253906 C 251.976562 90.445312 258.210938 89.984375 260.980469 88.292969 C 264.757812 85.984375 268.460938 83.136719 270.03125 81.328125 L 270.824219 80.414062 L 272.441406 82.207031 C 277.296875 87.582031 288.058594 88.773438 291.46875 84.308594 C 292.417969 83.066406 292.421875 83.035156 291.738281 82.382812 C 291.097656 81.773438 290.863281 81.757812 288.726562 82.210938 C 286.148438 82.753906 285.195312 82.492188 283.75 80.855469 C 281.363281 78.148438 280.53125 75.066406 280.8125 70 C 281.054688 65.628906 280.804688 64.945312 278.617188 64.035156 C 277.148438 63.421875 274.300781 63.3125 273.964844 63.855469 C 273.839844 64.058594 273.40625 64.21875 273 64.21875 C 271.902344 64.21875 270.148438 65.371094 270.148438 66.089844 C 270.148438 66.4375 269.984375 66.816406 269.785156 66.941406 C 269.585938 67.066406 269.421875 67.648438 269.421875 68.238281 C 269.421875 70.273438 267.996094 72.378906 263.691406 76.722656 C 259.175781 81.269531 254.949219 84.539062 253.582031 84.539062 C 252.539062 84.539062 251.300781 82 250.308594 77.828125 C 249.257812 73.429688 249.371094 59.886719 250.519531 51.882812 C 250.703125 50.585938 251.035156 48.054688 251.257812 46.257812 C 252.351562 37.324219 253.660156 29.621094 255.074219 23.761719 C 255.414062 22.367188 255.765625 20.734375 255.855469 20.136719 C 255.949219 19.535156 256.167969 18.71875 256.347656 18.320312 C 256.644531 17.652344 256.832031 16.402344 257.308594 11.972656 C 257.460938 10.527344 257.363281 10.226562 256.457031 9.402344 C 254.835938 7.921875 252.382812 7.375 249.980469 7.953125 M 438.761719 9.300781 C 438.0625 9.582031 437.207031 9.90625 436.859375 10.023438 C 435.984375 10.320312 434.765625 12.394531 434.765625 13.582031 C 434.765625 14.667969 433.382812 18.988281 432.179688 21.671875 C 430.5 25.414062 424.800781 36.550781 423.640625 38.367188 C 422.960938 39.421875 422.410156 40.382812 422.410156 40.5 C 422.410156 40.894531 417.777344 47.34375 416.972656 48.0625 C 416.175781 48.78125 416.175781 48.78125 415.496094 47.882812 C 414.371094 46.394531 411.707031 40.789062 410.417969 37.1875 C 409.988281 35.992188 409.503906 34.683594 409.339844 34.285156 C 408.578125 32.457031 407.238281 27.953125 406.039062 23.21875 C 405.761719 22.117188 405.464844 20.328125 404.753906 15.386719 C 404.414062 13.027344 401.40625 11.652344 398.121094 12.355469 C 397.117188 12.570312 396.097656 12.980469 395.859375 13.265625 C 395.605469 13.574219 394.773438 13.785156 393.820312 13.785156 C 392.011719 13.785156 390.304688 14.523438 389.859375 15.496094 C 389.695312 15.851562 389.359375 19.734375 389.105469 24.125 C 388.855469 28.515625 388.480469 34.230469 388.269531 36.824219 C 388.0625 39.417969 387.726562 43.746094 387.53125 46.441406 C 387.332031 49.136719 386.902344 54.277344 386.574219 57.871094 C 385.941406 64.765625 385.628906 68.953125 384.929688 79.734375 C 384.453125 87.117188 384.558594 87.746094 386.460938 88.726562 C 388.039062 89.539062 392.601562 89.855469 394.136719 89.25 C 395.957031 88.539062 396.246094 87.957031 396.246094 84.988281 C 396.246094 82.050781 397.128906 70.972656 397.6875 66.941406 C 397.878906 65.542969 398.210938 62.035156 398.425781 59.140625 C 398.640625 56.246094 398.96875 52.410156 399.15625 50.613281 C 399.34375 48.816406 399.597656 46.246094 399.71875 44.898438 C 399.835938 43.550781 400.050781 42.449219 400.1875 42.449219 C 400.328125 42.449219 400.757812 43.0625 401.148438 43.808594 C 402.65625 46.71875 407.0625 53.203125 408.152344 54.117188 C 410.242188 55.871094 412.160156 56.351562 416.320312 56.164062 C 420.550781 55.96875 422.039062 55.402344 424.363281 53.097656 C 426.03125 51.441406 428.675781 47.550781 430.363281 44.265625 C 432.480469 40.144531 432.492188 40.199219 431.503906 50.433594 C 431.28125 52.726562 430.957031 56.5625 430.777344 58.957031 C 430.597656 61.355469 430.269531 65.4375 430.046875 68.03125 C 429.820312 70.625 429.6875 75.636719 429.746094 79.167969 L 429.859375 85.589844 L 431.109375 86.878906 C 431.945312 87.738281 432.695312 88.167969 433.359375 88.167969 C 433.910156 88.167969 434.460938 88.332031 434.582031 88.53125 C 434.9375 89.101562 437.722656 88.921875 439.125 88.238281 L 440.398438 87.617188 L 440.410156 81.996094 C 440.421875 76.070312 441.144531 66.789062 441.703125 65.382812 C 441.882812 64.925781 442.03125 63.75 442.03125 62.769531 C 442.03125 61.792969 442.273438 59.066406 442.570312 56.710938 C 442.863281 54.355469 443.277344 50.875 443.492188 48.980469 C 443.703125 47.085938 444.03125 44.308594 444.21875 42.8125 C 446.523438 24.304688 447.507812 11.921875 446.78125 10.570312 C 445.847656 8.824219 441.625 8.15625 438.761719 9.300781 M 145.566406 10.695312 C 143.625 11.300781 142.777344 12.042969 141.859375 13.945312 C 141.0625 15.59375 141.042969 15.625 136.871094 21.753906 C 135.222656 24.175781 133.875 26.230469 133.875 26.320312 C 133.875 26.410156 133.300781 27.277344 132.601562 28.25 C 131.902344 29.222656 131.332031 30.113281 131.332031 30.230469 C 131.332031 30.347656 130.59375 31.492188 129.695312 32.777344 C 128.796875 34.0625 128.058594 35.222656 128.058594 35.355469 C 128.058594 35.488281 126.753906 37.628906 125.152344 40.113281 C 123.554688 42.597656 122.246094 44.714844 122.246094 44.820312 C 122.246094 44.921875 121.609375 46.023438 120.828125 47.265625 C 119.59375 49.234375 116.824219 53.984375 112.558594 61.441406 C 111.890625 62.609375 111.34375 63.695312 111.34375 63.851562 C 111.34375 64.011719 110.609375 64.957031 109.710938 65.957031 C 108.632812 67.152344 108.074219 68.105469 108.074219 68.742188 C 108.074219 69.542969 104.332031 77.28125 103.324219 78.5625 C 103.164062 78.769531 100.75 83.421875 97.964844 88.902344 C 95.179688 94.386719 92.558594 99.523438 92.136719 100.324219 C 90.78125 102.910156 89.539062 106.019531 89.539062 106.835938 C 89.539062 108.578125 92.246094 109.9375 95.71875 109.9375 C 99.289062 109.9375 99.753906 109.335938 105.957031 96.695312 C 107.28125 94 107.199219 94.160156 109.425781 89.980469 C 110.519531 87.925781 111.609375 85.871094 112.699219 83.8125 C 114.917969 79.613281 117.199219 75.4375 118.148438 73.835938 C 118.621094 73.039062 119.097656 72.113281 119.207031 71.785156 C 119.335938 71.398438 120.003906 71.097656 121.097656 70.9375 C 122.027344 70.800781 123.773438 70.390625 124.972656 70.019531 C 126.171875 69.652344 128.542969 69.085938 130.242188 68.761719 C 131.941406 68.4375 133.832031 68.019531 134.445312 67.832031 C 135.058594 67.640625 136.203125 67.484375 136.988281 67.480469 C 137.773438 67.476562 138.65625 67.324219 138.949219 67.136719 C 139.804688 66.597656 140.441406 67.367188 140.03125 68.445312 C 139.84375 68.941406 139.6875 71 139.6875 73.015625 C 139.6875 75.035156 139.527344 77.1875 139.332031 77.800781 C 139.132812 78.414062 138.824219 83.570312 138.644531 89.257812 C 138.347656 98.582031 138.375 99.679688 138.914062 100.441406 C 139.636719 101.46875 142.917969 102.652344 145.085938 102.667969 C 146.625 102.679688 148.925781 101.863281 149.371094 101.148438 C 149.488281 100.953125 149.636719 98.808594 149.695312 96.386719 C 149.800781 91.976562 150.359375 83.210938 150.972656 76.375 C 151.148438 74.378906 151.464844 70.789062 151.675781 68.394531 C 151.882812 66 152.222656 63.617188 152.433594 63.097656 C 152.640625 62.578125 152.773438 61.273438 152.722656 60.195312 C 152.675781 59.117188 152.828125 56.234375 153.066406 53.789062 C 154.339844 40.683594 154.832031 33.054688 155.191406 20.859375 L 155.417969 13.238281 L 154.433594 12.070312 C 152.859375 10.203125 149.046875 9.609375 145.566406 10.695312 M 223.269531 12.65625 C 221.253906 13.007812 219.886719 13.941406 217.960938 16.292969 C 214.882812 20.042969 210.476562 28.210938 209.683594 31.628906 C 209.25 33.507812 210.925781 34.117188 214.699219 33.445312 C 215.824219 33.246094 216.269531 32.929688 216.824219 31.925781 C 217.210938 31.226562 217.960938 30.105469 218.492188 29.429688 C 219.019531 28.753906 220.351562 27 221.453125 25.539062 C 222.8125 23.734375 224.179688 21.9375 225.558594 20.148438 C 227.289062 17.910156 227.703125 17.097656 227.878906 15.597656 C 228.230469 12.636719 227.195312 11.976562 223.269531 12.65625 M 171.539062 15.609375 C 169.417969 16.242188 168.460938 17.613281 168.183594 20.40625 C 168.078125 21.453125 167.65625 24.269531 167.246094 26.664062 C 166.835938 29.0625 166.371094 32 166.210938 33.195312 C 166.050781 34.394531 165.734375 36.515625 165.507812 37.914062 C 165.234375 39.605469 164.984375 41.296875 164.757812 42.992188 C 164.574219 44.390625 164.164062 47.410156 163.847656 49.707031 C 163.015625 55.738281 162.652344 58.664062 162 64.582031 C 161.683594 67.476562 161.257812 71.3125 161.058594 73.109375 C 160.554688 77.65625 160.578125 84.210938 161.113281 87.441406 C 161.644531 90.679688 162.527344 91.820312 165.285156 92.835938 C 168.957031 94.191406 175.242188 94.113281 178.445312 92.671875 C 179.074219 92.390625 179.691406 92.160156 179.8125 92.160156 C 180.277344 92.160156 183.554688 90.511719 185.296875 89.40625 C 188.300781 87.496094 193.34375 82.839844 195.480469 80.007812 C 196.582031 78.542969 198.09375 76.144531 198.832031 74.683594 C 200.125 72.125 200.179688 71.878906 200.15625 68.394531 C 200.132812 64.695312 199.792969 63.625 197.65625 60.503906 C 196.523438 58.851562 192.34375 56.625 188.625 55.695312 C 185.179688 54.832031 179.828125 55.21875 176.101562 56.601562 C 175.441406 56.847656 174.835938 56.980469 174.753906 56.898438 C 174.671875 56.816406 174.847656 55.289062 175.140625 53.5 C 175.910156 48.839844 176.410156 45.515625 176.757812 42.8125 C 176.921875 41.515625 177.398438 38.414062 177.808594 35.917969 C 179.175781 27.675781 179.261719 27.0625 179.683594 22.820312 C 180.171875 17.90625 179.808594 16.652344 177.652344 15.753906 C 176.304688 15.191406 173.183594 15.117188 171.539062 15.609375 M 281.820312 27.914062 C 279.71875 28.449219 278.699219 29.453125 278.578125 31.125 C 278.480469 32.40625 278.601562 32.699219 279.46875 33.265625 C 281.117188 34.34375 282.890625 34.847656 285.828125 35.078125 C 288.292969 35.265625 288.734375 35.203125 289.707031 34.511719 C 290.3125 34.082031 290.910156 33.261719 291.035156 32.683594 C 291.363281 31.1875 290.421875 29.191406 289.046875 28.480469 C 287.703125 27.789062 283.585938 27.464844 281.820312 27.914062 M 651.347656 29.269531 C 650.648438 29.363281 649.917969 29.589844 649.730469 29.777344 C 649.539062 29.960938 648.394531 30.117188 647.1875 30.125 C 643.5625 30.144531 638.609375 30.921875 632.996094 32.355469 C 628.308594 33.550781 620.417969 37.84375 618.199219 40.40625 C 616.449219 42.425781 615.378906 44.808594 615.375 46.679688 C 615.363281 52.109375 620.976562 56.007812 632.996094 58.917969 C 641.644531 61.015625 643.09375 61.578125 643.917969 63.167969 C 644.429688 64.15625 644.429688 64.445312 643.917969 66.199219 C 643.445312 67.824219 642.804688 68.703125 639.980469 71.621094 C 638.125 73.539062 636.449219 75.109375 636.257812 75.117188 C 636.0625 75.121094 635.066406 75.910156 634.046875 76.867188 C 630.640625 80.0625 616.320312 89.667969 607.433594 94.714844 C 605.167969 96.003906 602.875 97.3125 602.347656 97.628906 C 601.816406 97.941406 599.5 99.179688 597.203125 100.375 C 594.902344 101.570312 592.695312 102.734375 592.296875 102.960938 C 591.558594 103.375 580.648438 108.597656 578.304688 109.65625 C 577.605469 109.972656 575.5625 110.910156 573.761719 111.742188 C 571.964844 112.578125 568.367188 114.132812 565.769531 115.199219 C 563.167969 116.265625 560.0625 117.574219 558.863281 118.105469 C 555.882812 119.425781 555.054688 119.78125 550.867188 121.550781 C 548.871094 122.398438 546.203125 123.558594 544.9375 124.132812 C 543.675781 124.707031 542.496094 125.179688 542.316406 125.179688 C 542.023438 125.179688 540.050781 126.101562 536.21875 128.019531 C 535.558594 128.351562 534.753906 128.910156 534.4375 129.261719 C 534.117188 129.609375 533.5625 129.894531 533.199219 129.894531 C 531.75 129.894531 524.382812 133.578125 524.222656 134.382812 C 524.128906 134.867188 524.429688 134.972656 525.859375 134.957031 C 526.824219 134.949219 528.347656 134.777344 529.246094 134.574219 C 530.335938 134.332031 531.425781 134.101562 532.519531 133.886719 C 536.050781 133.199219 541.109375 131.65625 544.328125 130.277344 C 546.203125 129.472656 557.773438 125.21875 560.535156 124.316406 C 561.457031 124.015625 563.417969 123.25 564.898438 122.613281 C 568.292969 121.152344 569.449219 120.683594 571.039062 120.117188 C 573.058594 119.394531 573.597656 119.167969 576.597656 117.78125 C 578.15625 117.058594 579.636719 116.46875 579.886719 116.46875 C 580.136719 116.46875 580.496094 116.332031 580.683594 116.160156 C 580.875 115.992188 582.09375 115.4375 583.394531 114.929688 C 584.691406 114.417969 586.734375 113.566406 587.933594 113.03125 C 589.132812 112.5 590.605469 111.847656 591.207031 111.582031 C 601.535156 107.042969 617.078125 99.3125 620.152344 97.183594 C 620.683594 96.8125 621.203125 96.511719 621.308594 96.511719 C 621.929688 96.511719 634.683594 88.371094 639.398438 84.96875 C 645.871094 80.292969 652.523438 74.234375 654.410156 71.296875 C 656.558594 67.957031 656.910156 65.847656 655.753906 63.304688 C 654.3125 60.136719 652.542969 58.972656 643.898438 55.511719 C 642.167969 54.820312 640.8125 54.433594 638.082031 53.855469 C 631.441406 52.453125 628.195312 50.996094 627.011719 48.894531 C 626.507812 47.992188 626.539062 47.78125 627.445312 45.9375 C 629.296875 42.167969 634.191406 39.671875 645.722656 36.617188 C 649.332031 35.660156 650.800781 35.457031 654.320312 35.417969 C 658.019531 35.378906 658.691406 35.277344 659.585938 34.613281 C 660.730469 33.761719 661.148438 31.882812 660.394531 30.976562 C 659.328125 29.695312 654.722656 28.824219 651.347656 29.269531 M 142.328125 32.007812 C 141.65625 32.851562 135.328125 42.855469 135.328125 43.078125 C 135.328125 43.199219 135.105469 43.558594 134.835938 43.871094 C 134.5625 44.1875 133.722656 45.589844 132.96875 46.984375 C 132.214844 48.382812 131.308594 49.933594 130.957031 50.433594 C 130.605469 50.933594 129.585938 52.730469 128.6875 54.425781 C 126.570312 58.433594 125.269531 60.757812 124.027344 62.761719 C 123.472656 63.652344 123.050781 64.421875 123.09375 64.464844 C 123.183594 64.550781 125.683594 64.160156 130.242188 63.339844 C 131.941406 63.035156 134.914062 62.78125 136.851562 62.777344 C 139.035156 62.773438 140.46875 62.617188 140.621094 62.367188 C 140.761719 62.144531 141.007812 60.226562 141.171875 58.101562 C 141.800781 50.019531 142.90625 31.808594 142.777344 31.644531 C 142.734375 31.589844 142.53125 31.753906 142.328125 32.007812 M 593.902344 36.757812 C 592.785156 37.347656 591.671875 37.941406 590.5625 38.546875 C 585.421875 41.363281 579.441406 48.679688 577.140625 54.96875 C 575.550781 59.3125 575.398438 60.015625 575.398438 63.054688 C 575.398438 70.199219 578.949219 73.621094 587.027344 74.253906 C 592.644531 74.691406 599.917969 71.90625 604.394531 67.59375 C 604.65625 67.34375 605.070312 67.011719 605.320312 66.859375 C 606.472656 66.144531 610.246094 61.238281 611.265625 59.128906 C 612.757812 56.039062 613.332031 53.429688 613.296875 49.886719 C 613.265625 46.261719 612.355469 43.734375 610.105469 41 C 609.207031 39.90625 608.464844 38.789062 608.464844 38.527344 C 608.464844 36.890625 605.238281 35.917969 599.792969 35.917969 C 596.019531 35.917969 595.316406 36.019531 593.902344 36.757812 M 558.09375 37.542969 C 557.066406 37.792969 555.433594 38.539062 554.457031 39.199219 C 551.765625 41.023438 547.273438 44.820312 546.222656 46.15625 C 545.605469 46.933594 544.96875 47.695312 544.3125 48.4375 C 541.371094 51.71875 537.636719 58.3125 536.710938 61.855469 C 535.917969 64.898438 535.980469 70.164062 536.832031 72.035156 C 537.785156 74.128906 540.402344 76.289062 542.9375 77.082031 C 544.101562 77.441406 545.429688 77.882812 545.890625 78.054688 C 547.238281 78.566406 552.332031 78.417969 555.15625 77.785156 C 556.597656 77.464844 559.652344 76.28125 561.953125 75.15625 C 565.304688 73.515625 566.601562 72.644531 568.507812 70.75 C 571.144531 68.132812 573.296875 64.515625 572.621094 63.84375 C 572.035156 63.257812 569.179688 63.765625 567.738281 64.710938 C 563.789062 67.289062 560.027344 69.121094 552.324219 72.214844 C 551.15625 72.683594 549.414062 72.902344 548.996094 72.632812 C 548.429688 72.265625 547.675781 68.734375 547.878906 67.386719 C 548.515625 63.132812 551.121094 57.207031 553.882812 53.730469 C 554.824219 52.546875 556.027344 51.019531 556.554688 50.34375 C 557.085938 49.667969 558.765625 47.996094 560.292969 46.632812 C 562.898438 44.304688 563.121094 44.183594 563.945312 44.625 C 564.648438 45 565.0625 45.003906 566.023438 44.644531 C 569.328125 43.414062 571.039062 42.035156 571.039062 40.601562 C 571.039062 39.011719 570.679688 38.480469 569.109375 37.71875 C 567.902344 37.140625 566.921875 37.015625 563.792969 37.046875 C 561.679688 37.070312 559.117188 37.292969 558.09375 37.542969 M 536.789062 41.753906 C 534.160156 42.375 524.472656 47.847656 520.890625 50.742188 C 520.117188 51.367188 519.347656 51.988281 518.578125 52.609375 C 518.207031 52.910156 517.683594 53.359375 517.421875 53.605469 C 516.480469 54.5 516.296875 54.019531 516.445312 51.066406 C 516.675781 46.503906 515.859375 45.230469 512.398438 44.757812 C 510.039062 44.433594 506.117188 45.574219 505.347656 46.804688 C 504.835938 47.621094 504.015625 64.164062 504 73.984375 L 503.992188 80.304688 L 505.089844 80.917969 C 507.347656 82.179688 512.148438 82.683594 514.109375 81.867188 C 515.4375 81.3125 515.4375 81.308594 515.449219 79.023438 C 515.457031 77.765625 515.605469 75.136719 515.78125 73.175781 L 516.101562 69.617188 L 519.199219 65.003906 C 522.800781 59.648438 526.066406 56.308594 532.214844 51.703125 C 535.496094 49.242188 539.199219 45.308594 539.636719 43.816406 C 539.972656 42.675781 539.941406 42.375 539.429688 41.910156 C 538.753906 41.300781 538.71875 41.300781 536.789062 41.753906 M 599.714844 43.15625 C 597.808594 44.34375 592.296875 50.386719 591.0625 52.648438 C 590.503906 53.667969 589.945312 54.6875 589.386719 55.707031 C 588.421875 57.464844 587.183594 60.976562 586.863281 62.863281 C 586.734375 63.617188 586.738281 65.207031 586.875 66.402344 C 587.074219 68.167969 587.242188 68.574219 587.777344 68.574219 C 588.140625 68.574219 588.539062 68.410156 588.660156 68.210938 C 588.785156 68.011719 589.164062 67.84375 589.5 67.835938 C 591.203125 67.800781 595.875 64.558594 599.117188 61.160156 C 601.105469 59.074219 603.160156 55.550781 604.078125 52.644531 C 604.578125 51.066406 604.574219 48.109375 604.070312 46.296875 C 603.644531 44.757812 602.34375 42.558594 601.714844 42.3125 C 601.5 42.226562 600.597656 42.605469 599.714844 43.15625 M 473.828125 45.148438 C 470.523438 45.898438 469.664062 46.261719 466.039062 48.4375 C 461.6875 51.050781 455.007812 58.035156 452.164062 62.949219 C 448.914062 68.558594 448.050781 71.203125 448.066406 75.472656 C 448.082031 79.429688 448.464844 80.3125 450.898438 81.960938 C 453.238281 83.542969 455.324219 83.953125 459.53125 83.664062 C 463.910156 83.363281 465.441406 82.820312 468.558594 80.476562 C 473.84375 76.5 478.222656 72.273438 480.28125 69.167969 C 480.742188 68.46875 481.164062 69.542969 481.390625 71.992188 C 481.507812 73.242188 481.796875 74.738281 482.03125 75.320312 C 483.621094 79.242188 484.871094 80.816406 487.636719 82.402344 C 488.851562 83.097656 489.636719 83.238281 492.414062 83.25 C 496.292969 83.273438 497.269531 82.753906 497.269531 80.671875 C 497.269531 79.445312 497.089844 79.320312 495.546875 79.445312 C 494.945312 79.492188 494.605469 79.203125 494.226562 78.304688 C 492.617188 74.496094 492.5 68.859375 493.828125 58.832031 C 494.824219 51.300781 494.78125 50.851562 492.996094 49.988281 C 492.140625 49.574219 492.015625 49.320312 492.113281 48.191406 C 492.242188 46.714844 492.105469 46.582031 489.457031 45.609375 C 487.011719 44.710938 477.042969 44.417969 473.828125 45.148438 M 320.839844 49.3125 C 318.519531 49.667969 318.042969 49.878906 315.320312 51.769531 C 314.082031 52.632812 312.960938 53.335938 312.828125 53.335938 C 311.972656 53.335938 309.433594 56.105469 307.089844 59.597656 C 304.296875 63.753906 303.15625 65.988281 302.675781 68.226562 C 302.527344 68.917969 302.21875 69.710938 301.996094 69.988281 C 301.734375 70.308594 301.605469 72.039062 301.640625 74.707031 C 301.683594 78.078125 301.84375 79.238281 302.433594 80.546875 C 303.355469 82.578125 305.390625 84.539062 307.71875 85.632812 C 310.921875 87.140625 319.113281 87.003906 322.839844 85.386719 C 327.878906 83.195312 331.636719 80.570312 334.171875 77.464844 C 338 72.773438 339.914062 66.976562 339.414062 61.589844 C 339.128906 58.527344 338.40625 56.652344 336.449219 53.878906 C 334.117188 50.578125 333.246094 49.894531 331.449219 49.945312 C 330.609375 49.96875 329.753906 49.855469 329.546875 49.6875 C 329.003906 49.246094 322.980469 48.988281 320.839844 49.3125 M 213.277344 50.421875 C 212.875 50.597656 212.140625 50.832031 211.640625 50.941406 C 211.140625 51.050781 210.320312 51.511719 209.816406 51.964844 C 209.003906 52.699219 208.789062 53.484375 207.914062 58.957031 C 207.371094 62.351562 206.738281 67.960938 206.503906 71.421875 C 206.015625 78.722656 206.402344 82.476562 207.96875 85.6875 C 208.75 87.285156 209.234375 87.78125 210.730469 88.523438 C 212.832031 89.5625 216.164062 89.753906 218.089844 88.941406 C 219.183594 88.480469 219.273438 88.316406 219.273438 86.746094 C 219.273438 85.8125 219.085938 84.863281 218.859375 84.636719 C 218.25 84.027344 218.019531 74.828125 218.503906 70.570312 C 218.964844 66.535156 219.441406 63.046875 220.007812 59.503906 C 221.25 51.71875 220.910156 51.027344 215.457031 50.296875 C 214.65625 50.1875 213.675781 50.246094 213.277344 50.421875 M 477.160156 51.769531 C 470.5625 55.15625 465.242188 61.539062 460.886719 71.296875 C 460.515625 72.128906 459.484375 75.515625 459.480469 75.921875 C 459.46875 76.5625 460.367188 76.050781 463.191406 73.796875 C 468.320312 69.710938 474.339844 63.691406 478.460938 58.527344 C 480.773438 55.628906 481.105469 55.046875 481.417969 53.292969 C 481.550781 52.574219 481.980469 51.691406 482.375 51.332031 C 484.523438 49.394531 481.257812 49.667969 477.160156 51.769531 M 321.804688 58.71875 C 319.738281 60.847656 317.871094 62.914062 317.65625 63.3125 C 317.445312 63.710938 317.152344 64.121094 317.011719 64.21875 C 316.515625 64.574219 314.882812 68.125 314.085938 70.582031 C 312.804688 74.546875 313.019531 79.132812 314.582031 81.179688 C 314.9375 81.644531 316.414062 80.96875 320.296875 78.574219 C 322.433594 77.253906 326.226562 73.542969 327.578125 71.449219 C 330.214844 67.359375 330.890625 61.746094 329.1875 58.085938 C 328.203125 55.976562 327.074219 54.765625 326.144531 54.820312 C 325.824219 54.835938 323.875 56.589844 321.804688 58.71875 M 184.386719 60.933594 C 181.859375 61.707031 179.746094 63.023438 177.761719 65.066406 C 172.613281 70.359375 172.96875 69.800781 172.683594 73.0625 C 172.226562 78.28125 171.925781 86.648438 172.171875 87.285156 C 172.390625 87.859375 172.457031 87.859375 173.066406 87.308594 C 173.429688 86.984375 173.832031 86.714844 173.964844 86.714844 C 174.675781 86.714844 179.734375 83.074219 181.464844 81.3125 C 184.046875 78.691406 186.203125 76.054688 186.203125 75.523438 C 186.203125 75.292969 186.339844 75.105469 186.503906 75.105469 C 186.863281 75.105469 188.125 72.625 188.898438 70.386719 C 189.949219 67.347656 189.488281 64.464844 187.539062 61.914062 C 186.519531 60.578125 186.035156 60.425781 184.386719 60.933594 " fill-opacity="1" fill-rule="evenodd"/></svg>